<svg version="1.0" xmlns="http://www.w3.org/2000/svg" width="682.667" height="682.667" viewBox="0 0 512 512"><path d="M24 27.9C8.4 32.7-1.4 48.2 1.1 64.1c2.3 14.5 13 24.8 28.1 27 8.3 1.2 445.3 1.2 453.6 0 7.9-1.2 14-4.1 19.1-9.2 15.5-15.5 11.3-41.2-8.4-51.7l-5-2.7-231-.2c-127-.1-232.1.2-233.5.6zm-1.5 197.4c-9.3 3.7-17.3 11.6-20 19.8-2.2 6.4-2.2 15.4 0 21.9 2.1 6.3 9.6 14.7 16.1 18l4.9 2.5h281l4.7-2.3c20-9.9 24.6-36.8 8.8-52-2.2-2.3-6.2-5.1-8.8-6.4l-4.7-2.3-139.5-.2c-105.3-.1-140.2.1-142.5 1zM28.3 421c-17.8 2.6-30 19.3-27.2 37.1 1.6 9.9 8.1 18.8 17.4 23.7l5 2.7h465l5-2.7c19.7-10.5 23.9-36.2 8.4-51.7-5.1-5.1-11.2-8-19.1-9.2-7.6-1-447-1-454.5.1z"/></svg>